<svg width="20" height="20" viewBox="0 0 51 70" fill="none" xmlns="http://www.w3.org/2000/svg">
<path fill-rule="evenodd" clip-rule="evenodd" d="M44.5455 0H6.36364C2.8491 0 0 2.8491 0 6.36364V63.6364C0 67.1509 2.8491 70 6.36364 70H44.5455C48.06 70 50.9091 67.1509 50.9091 63.6364V6.36364C50.9091 2.8491 48.06 0 44.5455 0ZM6.36364 19.0909V6.36364H44.5455V19.0909H6.36364ZM6.36364 25.4545V63.6364H44.5455V25.4545H6.36364ZM19.0909 57.2727H12.7273V50.9091H19.0909V57.2727ZM22.2727 57.2727H28.6364V50.9091H22.2727V57.2727ZM38.1818 57.2727H31.8182V47.7273V44.5455V41.3636H38.1818V44.5455V47.7273V57.2727ZM12.7273 47.7273H19.0909V41.3636H12.7273V47.7273ZM28.6364 47.7273H22.2727V41.3636H28.6364V47.7273ZM19.0909 38.1818H12.7273V31.8182H19.0909V38.1818ZM22.2727 38.1818H28.6364V31.8182H22.2727V38.1818ZM38.1818 38.1818H31.8182V31.8182H38.1818V38.1818Z" fill="black"/>
</svg>
